<svg width="14" height="16" viewBox="0 0 14 16" fill="none" xmlns="http://www.w3.org/2000/svg">
<path fill-rule="evenodd" clip-rule="evenodd" d="M4.33334 0.666748C4.70153 0.666748 5.00001 0.965225 5.00001 1.33341V2.00008H9.00001V1.33341C9.00001 0.965225 9.29849 0.666748 9.66668 0.666748C10.0349 0.666748 10.3333 0.965225 10.3333 1.33341V2.00116C10.6503 2.00334 10.9274 2.00989 11.1679 2.02954C11.5426 2.06016 11.8871 2.12587 12.2107 2.29073C12.7124 2.54639 13.1204 2.95434 13.376 3.45611C13.5409 3.77966 13.6066 4.12413 13.6372 4.49886C13.6667 4.85966 13.6667 5.30256 13.6667 5.8392V11.4943C13.6667 12.0309 13.6667 12.4738 13.6372 12.8346C13.6066 13.2094 13.5409 13.5538 13.376 13.8774C13.1204 14.3792 12.7124 14.7871 12.2107 15.0428C11.8871 15.2076 11.5426 15.2733 11.1679 15.304C10.8071 15.3334 10.3642 15.3334 9.82756 15.3334H4.17246C3.63582 15.3334 3.19292 15.3334 2.83213 15.304C2.4574 15.2733 2.11293 15.2076 1.78937 15.0428C1.2876 14.7871 0.879656 14.3792 0.623993 13.8774C0.459133 13.5538 0.393423 13.2094 0.362807 12.8346C0.333328 12.4738 0.333335 12.0309 0.333344 11.4943V5.83921C0.333335 5.30257 0.333328 4.85966 0.362807 4.49886C0.393423 4.12413 0.459133 3.77966 0.623993 3.45611C0.879656 2.95434 1.2876 2.54639 1.78937 2.29073C2.11293 2.12587 2.4574 2.06016 2.83213 2.02954C3.07267 2.00989 3.3497 2.00334 3.66668 2.00116V1.33341C3.66668 0.965225 3.96515 0.666748 4.33334 0.666748ZM3.66668 3.33459C3.36966 3.33668 3.13643 3.34246 2.9407 3.35845C2.64843 3.38233 2.49896 3.42561 2.39469 3.47874C2.14381 3.60657 1.93983 3.81054 1.812 4.06143C1.75888 4.16569 1.71559 4.31516 1.69171 4.60744C1.6672 4.9075 1.66668 5.29569 1.66668 5.86675V6.00008H12.3333V5.86675C12.3333 5.29569 12.3328 4.9075 12.3083 4.60744C12.2844 4.31516 12.2411 4.16569 12.188 4.06143C12.0602 3.81054 11.8562 3.60657 11.6053 3.47874C11.5011 3.42561 11.3516 3.38233 11.0593 3.35845C10.8636 3.34246 10.6304 3.33668 10.3333 3.33459V4.00008C10.3333 4.36827 10.0349 4.66675 9.66668 4.66675C9.29849 4.66675 9.00001 4.36827 9.00001 4.00008V3.33341H5.00001V4.00008C5.00001 4.36827 4.70153 4.66675 4.33334 4.66675C3.96515 4.66675 3.66668 4.36827 3.66668 4.00008V3.33459ZM12.3333 7.33341H1.66668V11.4667C1.66668 12.0378 1.6672 12.426 1.69171 12.7261C1.71559 13.0183 1.75888 13.1678 1.812 13.2721C1.93983 13.523 2.14381 13.7269 2.39469 13.8548C2.49896 13.9079 2.64843 13.9512 2.9407 13.975C3.24076 13.9996 3.62896 14.0001 4.20001 14.0001H9.80001C10.3711 14.0001 10.7593 13.9996 11.0593 13.975C11.3516 13.9512 11.5011 13.9079 11.6053 13.8548C11.8562 13.7269 12.0602 13.523 12.188 13.2721C12.2411 13.1678 12.2844 13.0183 12.3083 12.7261C12.3328 12.426 12.3333 12.0378 12.3333 11.4667V7.33341Z" fill="#F5F8FB"/>
</svg>
