<svg width="10" height="10" viewBox="0 0 10 10" fill="none" xmlns="http://www.w3.org/2000/svg">
<path fill-rule="evenodd" clip-rule="evenodd" d="M0.529247 0.486583C0.789596 0.226233 1.21171 0.226233 1.47206 0.486583L5.00065 4.01518L8.52925 0.486583C8.7896 0.226233 9.21171 0.226233 9.47206 0.486583C9.73241 0.746932 9.73241 1.16904 9.47206 1.42939L5.94346 4.95799L9.47206 8.48658C9.73241 8.74693 9.73241 9.16904 9.47206 9.42939C9.21171 9.68974 8.7896 9.68974 8.52925 9.42939L5.00065 5.9008L1.47206 9.42939C1.21171 9.68974 0.789596 9.68974 0.529247 9.42939C0.268897 9.16904 0.268897 8.74693 0.529247 8.48658L4.05784 4.95799L0.529247 1.42939C0.268897 1.16904 0.268897 0.746932 0.529247 0.486583Z" fill="#F5F8FB"/>
</svg>
