<svg width="24" height="25" viewBox="0 0 24 25" fill="none" xmlns="http://www.w3.org/2000/svg">
<path d="M2.00119 12.4611C2.00235 17.4107 5.57959 21.6252 10.4382 22.4009V15.3688H7.90119V12.4611H10.4412V10.2475C10.3276 9.19864 10.6837 8.15329 11.4128 7.39499C12.1419 6.63669 13.1685 6.24403 14.2142 6.32351C14.9647 6.3357 15.7134 6.40296 16.4542 6.52474V8.99888H15.1902C14.755 8.94153 14.3175 9.08613 14.001 9.39195C13.6844 9.69776 13.523 10.1317 13.5622 10.5715V12.4611H16.3332L15.8902 15.3699H13.5622V22.4009C18.8167 21.5654 22.5013 16.737 21.9467 11.4137C21.3921 6.09045 16.7925 2.13581 11.48 2.41477C6.16755 2.69372 2.00203 7.10862 2.00119 12.4611Z" fill="#F5F8FB"/>
</svg>
