<svg width="22" height="20" viewBox="0 0 22 20" fill="none" xmlns="http://www.w3.org/2000/svg">
<path fill-rule="evenodd" clip-rule="evenodd" d="M9.09001 2.05463C8.96938 2.01302 8.8127 1.99997 8.02229 1.99997H4.2C3.62345 1.99997 3.25117 2.00075 2.96784 2.0239C2.69617 2.04609 2.59546 2.08377 2.54601 2.10896C2.35785 2.20484 2.20487 2.35782 2.109 2.54598C2.0838 2.59542 2.04612 2.69614 2.02393 2.96781C2.00357 3.21695 2.00052 3.53487 2.00007 3.99997H10.382L9.99003 3.2161C9.63656 2.50915 9.55481 2.37484 9.46365 2.28555C9.35776 2.18184 9.23013 2.10296 9.09001 2.05463ZM12.618 3.99997L11.7789 2.32168C11.7602 2.28429 11.7417 2.24719 11.7234 2.2104C11.4586 1.67916 11.2258 1.21196 10.8631 0.856716C10.5454 0.545567 10.1625 0.308932 9.74215 0.163935C9.26219 -0.00161098 8.74022 -0.000921596 8.14666 -0.000137795C8.10555 -8.35543e-05 8.0641 -2.88373e-05 8.02229 -2.88373e-05L4.16146 -2.97909e-05C3.63431 -4.76723e-05 3.17955 -6.31697e-05 2.80497 0.0305406C2.40963 0.0628416 2.01641 0.134158 1.63803 0.326952C1.07354 0.614572 0.614602 1.07351 0.326982 1.638C0.134188 2.01638 0.0628723 2.4096 0.0305712 2.80494C-3.25181e-05 3.17952 -1.70213e-05 3.63428 8.6011e-07 4.16143L1.33695e-06 14.2413C-1.14184e-05 15.0462 -2.19084e-05 15.7106 0.0441954 16.2518C0.0901206 16.8139 0.188685 17.3306 0.435976 17.8159C0.819469 18.5686 1.43139 19.1805 2.18404 19.564C2.66938 19.8113 3.18608 19.9099 3.74818 19.9558C4.28937 20 4.95372 20 5.75868 20H16.2413C17.0463 20 17.7106 20 18.2518 19.9558C18.8139 19.9099 19.3306 19.8113 19.816 19.564C20.5686 19.1805 21.1805 18.5686 21.564 17.8159C21.8113 17.3306 21.9099 16.8139 21.9558 16.2518C22 15.7106 22 15.0463 22 14.2413V9.75865C22 8.95369 22 8.28934 21.9558 7.74815C21.9099 7.18605 21.8113 6.66934 21.564 6.18401C21.1805 5.43136 20.5686 4.81944 19.816 4.43595C19.3306 4.18865 18.8139 4.09009 18.2518 4.04417C17.7106 3.99995 17.0463 3.99996 16.2413 3.99997L12.618 3.99997ZM11.9799 5.99997C11.9938 6.00026 12.0077 6.00026 12.0217 5.99997H16.2C17.0566 5.99997 17.6389 6.00075 18.089 6.03752C18.5274 6.07334 18.7516 6.13827 18.908 6.21796C19.2843 6.40971 19.5903 6.71567 19.782 7.09199C19.8617 7.24839 19.9266 7.47259 19.9625 7.91101C19.9992 8.3611 20 8.94339 20 9.79997V14.2C20 15.0566 19.9992 15.6388 19.9625 16.0889C19.9266 16.5273 19.8617 16.7516 19.782 16.908C19.5903 17.2843 19.2843 17.5902 18.908 17.782C18.7516 17.8617 18.5274 17.9266 18.089 17.9624C17.6389 17.9992 17.0566 18 16.2 18H5.8C4.94342 18 4.36113 17.9992 3.91104 17.9624C3.47262 17.9266 3.24842 17.8617 3.09202 17.782C2.7157 17.5902 2.40974 17.2843 2.21799 16.908C2.1383 16.7516 2.07337 16.5273 2.03755 16.0889C2.00078 15.6388 2 15.0566 2 14.2V5.99997H11.9799Z" fill="white"/>
</svg>
