<svg width="24" height="25" viewBox="0 0 24 25" fill="none" xmlns="http://www.w3.org/2000/svg">
<path fill-rule="evenodd" clip-rule="evenodd" d="M8.1944 3.22433C9.17874 3.17902 9.49258 3.16895 12 3.16895C14.5074 3.16895 14.8213 3.17985 15.8048 3.22433C16.7882 3.26881 17.4596 3.42573 18.047 3.65314C18.6621 3.88559 19.2201 4.24895 19.6817 4.71888C20.1516 5.17957 20.5141 5.73678 20.7457 6.35272C20.974 6.94013 21.1301 7.61146 21.1754 8.59328C21.2207 9.5793 21.2308 9.89314 21.2308 12.3997C21.2308 14.9071 21.2199 15.221 21.1754 16.2053C21.1309 17.1871 20.974 17.8585 20.7457 18.4459C20.5141 19.0619 20.151 19.62 19.6817 20.0814C19.2201 20.5513 18.6621 20.9138 18.047 21.1455C17.4596 21.3737 16.7882 21.5298 15.8064 21.5751C14.8213 21.6204 14.5074 21.6305 12 21.6305C9.49258 21.6305 9.17874 21.6196 8.1944 21.5751C7.21258 21.5306 6.54125 21.3737 5.95384 21.1455C5.33783 20.9138 4.77971 20.5507 4.31832 20.0814C3.84871 19.6204 3.48529 19.0626 3.25342 18.4467C3.02601 17.8593 2.86993 17.188 2.82461 16.2062C2.7793 15.2201 2.76923 14.9063 2.76923 12.3997C2.76923 9.8923 2.78014 9.57846 2.82461 8.59496C2.86909 7.61146 3.02601 6.94013 3.25342 6.35272C3.48564 5.73685 3.84933 5.179 4.31916 4.71804C4.77989 4.24853 5.33745 3.88512 5.953 3.65314C6.54042 3.42573 7.21174 3.26964 8.19356 3.22433H8.1944ZM15.7301 4.88587C14.7566 4.84139 14.4646 4.83216 12 4.83216C9.53538 4.83216 9.24335 4.84139 8.26993 4.88587C7.36951 4.92699 6.88111 5.0772 6.55552 5.20391C6.12503 5.37174 5.81706 5.57062 5.49398 5.8937C5.18773 6.19165 4.95203 6.55436 4.80419 6.95524C4.67748 7.28083 4.52727 7.76923 4.48615 8.66965C4.44167 9.64307 4.43244 9.9351 4.43244 12.3997C4.43244 14.8643 4.44167 15.1564 4.48615 16.1298C4.52727 17.0302 4.67748 17.5186 4.80419 17.8442C4.95188 18.2445 5.18769 18.6078 5.49398 18.9057C5.79188 19.212 6.15524 19.4478 6.55552 19.5955C6.88111 19.7222 7.36951 19.8724 8.26993 19.9136C9.24335 19.958 9.53454 19.9673 12 19.9673C14.4655 19.9673 14.7566 19.958 15.7301 19.9136C16.6305 19.8724 17.1189 19.7222 17.4445 19.5955C17.875 19.4277 18.1829 19.2288 18.506 18.9057C18.8123 18.6078 19.0481 18.2445 19.1958 17.8442C19.3225 17.5186 19.4727 17.0302 19.5138 16.1298C19.5583 15.1564 19.5676 14.8643 19.5676 12.3997C19.5676 9.9351 19.5583 9.64307 19.5138 8.66965C19.4727 7.76923 19.3225 7.28083 19.1958 6.95524C19.028 6.52475 18.8291 6.21678 18.506 5.8937C18.208 5.58747 17.8453 5.35178 17.4445 5.20391C17.1189 5.0772 16.6305 4.92699 15.7301 4.88587ZM10.821 15.2453C11.4794 15.5194 12.2126 15.5564 12.8953 15.35C13.578 15.1435 14.1679 14.7065 14.5641 14.1135C14.9604 13.5205 15.1385 12.8083 15.068 12.0985C14.9975 11.3888 14.6828 10.7256 14.1776 10.2221C13.8556 9.90026 13.4662 9.65382 13.0375 9.50054C12.6088 9.34725 12.1514 9.29093 11.6983 9.33562C11.2452 9.38031 10.8077 9.5249 10.4172 9.75899C10.0267 9.99307 9.69293 10.3108 9.43997 10.6894C9.18701 11.0679 9.02113 11.4979 8.95428 11.9482C8.88742 12.3986 8.92124 12.8581 9.05332 13.2939C9.18539 13.7296 9.41243 14.1306 9.71808 14.468C10.0237 14.8055 10.4004 15.0709 10.821 15.2453ZM8.64503 9.04475C9.08561 8.60417 9.60866 8.25468 10.1843 8.01624C10.7599 7.7778 11.3769 7.65508 12 7.65508C12.6231 7.65508 13.24 7.7778 13.8157 8.01624C14.3913 8.25468 14.9144 8.60417 15.355 9.04475C15.7955 9.48533 16.145 10.0084 16.3835 10.584C16.6219 11.1597 16.7446 11.7766 16.7446 12.3997C16.7446 13.0228 16.6219 13.6398 16.3835 14.2154C16.145 14.7911 15.7955 15.3141 15.355 15.7547C14.4652 16.6445 13.2584 17.1444 12 17.1444C10.7416 17.1444 9.53482 16.6445 8.64503 15.7547C7.75524 14.8649 7.25536 13.6581 7.25536 12.3997C7.25536 11.1414 7.75524 9.93454 8.64503 9.04475ZM17.7969 8.36167C17.9061 8.25868 17.9935 8.13483 18.054 7.99746C18.1144 7.86008 18.1467 7.71197 18.1489 7.56189C18.1511 7.41182 18.1231 7.26283 18.0667 7.12375C18.0103 6.98467 17.9265 6.85833 17.8204 6.7522C17.7143 6.64607 17.5879 6.56231 17.4488 6.50588C17.3097 6.44946 17.1608 6.42151 17.0107 6.4237C16.8606 6.42589 16.7125 6.45817 16.5751 6.51862C16.4377 6.57908 16.3139 6.66648 16.2109 6.77566C16.0106 6.98799 15.9009 7.27003 15.9052 7.56189C15.9095 7.85376 16.0273 8.13248 16.2337 8.33888C16.4401 8.54529 16.7188 8.66312 17.0107 8.66738C17.3026 8.67163 17.5846 8.56197 17.7969 8.36167Z" fill="#F5F8FB"/>
</svg>
