<svg width="135" height="21" viewBox="0 0 135 21" fill="none" xmlns="http://www.w3.org/2000/svg">
<path d="M18.0719 15.3712C18.0719 17.0779 17.5386 18.3686 16.4719 19.2432C15.4266 20.1179 13.5706 20.5552 10.9039 20.5552H0.919922V0.299231H10.5839C12.3546 0.299231 13.7306 0.491231 14.7119 0.875231C15.7146 1.2379 16.4186 1.7819 16.8239 2.50723C17.2293 3.23256 17.4319 4.13923 17.4319 5.22723C17.4319 6.72056 17.0693 7.88323 16.3439 8.71523C15.6399 9.5259 14.3066 10.0166 12.3439 10.1872V10.2832C13.7946 10.3899 14.9359 10.6352 15.7679 11.0192C16.5999 11.3819 17.1866 11.9152 17.5279 12.6192C17.8906 13.3232 18.0719 14.2406 18.0719 15.3712ZM9.17592 4.33123H6.03992V8.29923H9.17592C10.2213 8.29923 10.9786 8.17123 11.4479 7.91523C11.9173 7.6379 12.1519 7.10456 12.1519 6.31523C12.1519 5.54723 11.9173 5.02456 11.4479 4.74723C10.9786 4.4699 10.2213 4.33123 9.17592 4.33123ZM9.81592 12.4912H6.03992V16.5552H9.81592C10.8613 16.5552 11.6186 16.4166 12.0879 16.1392C12.5573 15.8406 12.7919 15.2966 12.7919 14.5072C12.7919 13.6966 12.5573 13.1632 12.0879 12.9072C11.6186 12.6299 10.8613 12.4912 9.81592 12.4912Z" fill="#0265DC"/>
<path d="M26.0712 20.5552H20.9512V0.299231H26.0712V20.5552Z" fill="#0265DC"/>
<path d="M43.0399 0.299231H48.1599V20.5552H43.0719L37.3119 11.9792C36.8639 11.2966 36.4906 10.7206 36.1919 10.2512C35.8933 9.7819 35.6159 9.31256 35.3599 8.84323C35.1039 8.3739 34.8159 7.81923 34.4959 7.17923L34.3999 7.30723C34.6986 8.33123 34.8799 9.29123 34.9439 10.1872C35.0079 11.0619 35.0399 11.9152 35.0399 12.7472V20.5552H29.9199V0.299231H35.0079L40.7679 8.87523C41.2159 9.53656 41.5893 10.1126 41.8879 10.6032C42.1866 11.0726 42.4639 11.5419 42.7199 12.0112C42.9759 12.4806 43.2639 13.0352 43.5839 13.6752L43.6799 13.5472C43.4666 12.6512 43.3066 11.7872 43.1999 10.9552C43.0933 10.1019 43.0399 9.25923 43.0399 8.42723V0.299231Z" fill="#0265DC"/>
<path d="M70.5737 20.4592V20.5552H65.1337C64.9843 20.0432 64.803 19.4566 64.5897 18.7952C64.3977 18.1339 64.1843 17.4299 63.9497 16.6832H57.0377C56.611 18.1766 56.2163 19.4672 55.8537 20.5552H50.4137V20.4912L56.9737 0.299231H64.0137L70.5737 20.4592ZM60.4297 3.94723C60.2163 5.03523 59.907 6.3579 59.5017 7.91523C59.0963 9.47256 58.6697 11.0619 58.2217 12.6832H62.7977C62.3283 11.0619 61.891 9.47256 61.4857 7.91523C61.0803 6.3579 60.771 5.03523 60.5577 3.94723H60.4297Z" fill="#0265DC"/>
<path d="M89.9782 15.3712C89.9782 17.0779 89.4448 18.3686 88.3782 19.2432C87.3328 20.1179 85.4768 20.5552 82.8102 20.5552H72.8262V0.299231H82.4902C84.2608 0.299231 85.6368 0.491231 86.6182 0.875231C87.6208 1.2379 88.3248 1.7819 88.7302 2.50723C89.1355 3.23256 89.3382 4.13923 89.3382 5.22723C89.3382 6.72056 88.9755 7.88323 88.2502 8.71523C87.5462 9.5259 86.2128 10.0166 84.2502 10.1872V10.2832C85.7008 10.3899 86.8422 10.6352 87.6742 11.0192C88.5062 11.3819 89.0928 11.9152 89.4342 12.6192C89.7968 13.3232 89.9782 14.2406 89.9782 15.3712ZM81.0822 4.33123H77.9462V8.29923H81.0822C82.1275 8.29923 82.8848 8.17123 83.3542 7.91523C83.8235 7.6379 84.0582 7.10456 84.0582 6.31523C84.0582 5.54723 83.8235 5.02456 83.3542 4.74723C82.8848 4.4699 82.1275 4.33123 81.0822 4.33123ZM81.7222 12.4912H77.9462V16.5552H81.7222C82.7675 16.5552 83.5248 16.4166 83.9942 16.1392C84.4635 15.8406 84.6982 15.2966 84.6982 14.5072C84.6982 13.6966 84.4635 13.1632 83.9942 12.9072C83.5248 12.6299 82.7675 12.4912 81.7222 12.4912Z" fill="#0265DC"/>
<path d="M92.2174 10.4112C92.2174 7.8299 92.5054 5.7819 93.0814 4.26723C93.6788 2.75256 94.6921 1.66456 96.1214 1.00323C97.5721 0.341897 99.5881 0.0112305 102.169 0.0112305C104.111 0.0112305 105.721 0.192564 107.001 0.555231C108.281 0.917897 109.295 1.50456 110.041 2.31523C110.788 3.1259 111.311 4.20323 111.609 5.54723C111.929 6.8699 112.089 8.49123 112.089 10.4112C112.089 12.3526 111.929 13.9952 111.609 15.3392C111.311 16.6619 110.788 17.7286 110.041 18.5392C109.295 19.3499 108.281 19.9366 107.001 20.2992C105.721 20.6619 104.111 20.8432 102.169 20.8432C100.228 20.8432 98.6174 20.6619 97.3374 20.2992C96.0574 19.9366 95.0441 19.3499 94.2974 18.5392C93.5508 17.7286 93.0174 16.6619 92.6974 15.3392C92.3774 13.9952 92.2174 12.3526 92.2174 10.4112ZM102.169 16.3632C103.535 16.3632 104.559 16.1926 105.241 15.8512C105.924 15.5099 106.383 14.9126 106.617 14.0592C106.852 13.1846 106.969 11.9686 106.969 10.4112C106.969 8.87523 106.852 7.68056 106.617 6.82723C106.383 5.9739 105.924 5.37656 105.241 5.03523C104.559 4.67256 103.535 4.49123 102.169 4.49123C100.825 4.49123 99.8014 4.67256 99.0974 5.03523C98.4147 5.37656 97.9454 5.9739 97.6894 6.82723C97.4548 7.68056 97.3374 8.87523 97.3374 10.4112C97.3374 11.9686 97.4548 13.1846 97.6894 14.0592C97.9454 14.9126 98.4147 15.5099 99.0974 15.8512C99.8014 16.1926 100.825 16.3632 102.169 16.3632Z" fill="#0265DC"/>
<path d="M128.351 10.2192L134.271 20.5552H127.871L124.191 13.3872H124.095L120.415 20.5552H114.015L119.935 10.2192V10.0592L114.399 0.299231H120.703L124.095 7.33923H124.191L127.583 0.299231H133.887L128.351 10.0592V10.2192Z" fill="#0265DC"/>
</svg>
