<svg width="135" height="22" viewBox="0 0 135 22" fill="none" xmlns="http://www.w3.org/2000/svg">
    <path d="M18.0719 15.7106C18.0719 17.4173 17.5386 18.7079 16.4719 19.5826C15.4266 20.4573 13.5706 20.8946 10.9039 20.8946H0.919922V0.638586H10.5839C12.3546 0.638586 13.7306 0.830586 14.7119 1.21459C15.7146 1.57725 16.4186 2.12125 16.8239 2.84659C17.2293 3.57192 17.4319 4.47859 17.4319 5.56659C17.4319 7.05992 17.0693 8.22259 16.3439 9.05459C15.6399 9.86525 14.3066 10.3559 12.3439 10.5266V10.6226C13.7946 10.7293 14.9359 10.9746 15.7679 11.3586C16.5999 11.7213 17.1866 12.2546 17.5279 12.9586C17.8906 13.6626 18.0719 14.5799 18.0719 15.7106ZM9.17592 4.67059H6.03992V8.63859H9.17592C10.2213 8.63859 10.9786 8.51059 11.4479 8.25459C11.9173 7.97725 12.1519 7.44392 12.1519 6.65459C12.1519 5.88659 11.9173 5.36392 11.4479 5.08659C10.9786 4.80925 10.2213 4.67059 9.17592 4.67059ZM9.81592 12.8306H6.03992V16.8946H9.81592C10.8613 16.8946 11.6186 16.7559 12.0879 16.4786C12.5573 16.1799 12.7919 15.6359 12.7919 14.8466C12.7919 14.0359 12.5573 13.5026 12.0879 13.2466C11.6186 12.9693 10.8613 12.8306 9.81592 12.8306Z" />
    <path d="M26.0712 20.8946H20.9512V0.638586H26.0712V20.8946Z" />
    <path d="M43.0399 0.638586H48.1599V20.8946H43.0719L37.3119 12.3186C36.8639 11.6359 36.4906 11.0599 36.1919 10.5906C35.8933 10.1213 35.6159 9.65192 35.3599 9.18259C35.1039 8.71325 34.8159 8.15859 34.4959 7.51859L34.3999 7.64659C34.6986 8.67059 34.8799 9.63059 34.9439 10.5266C35.0079 11.4013 35.0399 12.2546 35.0399 13.0866V20.8946H29.9199V0.638586H35.0079L40.7679 9.21459C41.2159 9.87592 41.5893 10.4519 41.8879 10.9426C42.1866 11.4119 42.4639 11.8813 42.7199 12.3506C42.9759 12.8199 43.2639 13.3746 43.5839 14.0146L43.6799 13.8866C43.4666 12.9906 43.3066 12.1266 43.1999 11.2946C43.0933 10.4413 43.0399 9.59859 43.0399 8.76659V0.638586Z" />
    <path d="M70.5737 20.7986V20.8946H65.1337C64.9843 20.3826 64.803 19.7959 64.5897 19.1346C64.3977 18.4733 64.1843 17.7693 63.9497 17.0226H57.0377C56.611 18.5159 56.2163 19.8066 55.8537 20.8946H50.4137V20.8306L56.9737 0.638586H64.0137L70.5737 20.7986ZM60.4297 4.28659C60.2163 5.37459 59.907 6.69725 59.5017 8.25459C59.0963 9.81192 58.6697 11.4013 58.2217 13.0226H62.7977C62.3283 11.4013 61.891 9.81192 61.4857 8.25459C61.0803 6.69725 60.771 5.37459 60.5577 4.28659H60.4297Z" />
    <path d="M89.9782 15.7106C89.9782 17.4173 89.4448 18.7079 88.3782 19.5826C87.3328 20.4573 85.4768 20.8946 82.8102 20.8946H72.8262V0.638586H82.4902C84.2608 0.638586 85.6368 0.830586 86.6182 1.21459C87.6208 1.57725 88.3248 2.12125 88.7302 2.84659C89.1355 3.57192 89.3382 4.47859 89.3382 5.56659C89.3382 7.05992 88.9755 8.22259 88.2502 9.05459C87.5462 9.86525 86.2128 10.3559 84.2502 10.5266V10.6226C85.7008 10.7293 86.8422 10.9746 87.6742 11.3586C88.5062 11.7213 89.0928 12.2546 89.4342 12.9586C89.7968 13.6626 89.9782 14.5799 89.9782 15.7106ZM81.0822 4.67059H77.9462V8.63859H81.0822C82.1275 8.63859 82.8848 8.51059 83.3542 8.25459C83.8235 7.97725 84.0582 7.44392 84.0582 6.65459C84.0582 5.88659 83.8235 5.36392 83.3542 5.08659C82.8848 4.80925 82.1275 4.67059 81.0822 4.67059ZM81.7222 12.8306H77.9462V16.8946H81.7222C82.7675 16.8946 83.5248 16.7559 83.9942 16.4786C84.4635 16.1799 84.6982 15.6359 84.6982 14.8466C84.6982 14.0359 84.4635 13.5026 83.9942 13.2466C83.5248 12.9693 82.7675 12.8306 81.7222 12.8306Z" />
    <path d="M92.2174 10.7506C92.2174 8.16925 92.5054 6.12125 93.0814 4.60659C93.6788 3.09192 94.6921 2.00392 96.1214 1.34259C97.5721 0.681253 99.5881 0.350586 102.169 0.350586C104.111 0.350586 105.721 0.531919 107.001 0.894587C108.281 1.25725 109.295 1.84392 110.041 2.65458C110.788 3.46525 111.311 4.54259 111.609 5.88659C111.929 7.20925 112.089 8.83059 112.089 10.7506C112.089 12.6919 111.929 14.3346 111.609 15.6786C111.311 17.0013 110.788 18.0679 110.041 18.8786C109.295 19.6893 108.281 20.2759 107.001 20.6386C105.721 21.0013 104.111 21.1826 102.169 21.1826C100.228 21.1826 98.6174 21.0013 97.3374 20.6386C96.0574 20.2759 95.0441 19.6893 94.2974 18.8786C93.5508 18.0679 93.0174 17.0013 92.6974 15.6786C92.3774 14.3346 92.2174 12.6919 92.2174 10.7506ZM102.169 16.7026C103.535 16.7026 104.559 16.5319 105.241 16.1906C105.924 15.8493 106.383 15.2519 106.617 14.3986C106.852 13.5239 106.969 12.3079 106.969 10.7506C106.969 9.21459 106.852 8.01992 106.617 7.16659C106.383 6.31325 105.924 5.71592 105.241 5.37459C104.559 5.01192 103.535 4.83059 102.169 4.83059C100.825 4.83059 99.8014 5.01192 99.0974 5.37459C98.4147 5.71592 97.9454 6.31325 97.6894 7.16659C97.4548 8.01992 97.3374 9.21459 97.3374 10.7506C97.3374 12.3079 97.4548 13.5239 97.6894 14.3986C97.9454 15.2519 98.4147 15.8493 99.0974 16.1906C99.8014 16.5319 100.825 16.7026 102.169 16.7026Z" />
    <path d="M128.351 10.5586L134.271 20.8946H127.871L124.191 13.7266H124.095L120.415 20.8946H114.015L119.935 10.5586V10.3986L114.399 0.638586H120.703L124.095 7.67859H124.191L127.583 0.638586H133.887L128.351 10.3986V10.5586Z" />
    </svg>
    