<svg width="56" height="57" viewBox="0 0 56 57" fill="none" xmlns="http://www.w3.org/2000/svg">
<path fill-rule="evenodd" clip-rule="evenodd" d="M15.7702 7.24329H40.2296C42.1078 7.24326 43.658 7.24323 44.9208 7.34641C46.2324 7.45357 47.438 7.68355 48.5704 8.26056C50.3266 9.15538 51.7544 10.5832 52.6493 12.3394C53.2061 13.4322 53.4397 14.5931 53.5517 15.8517C53.6765 16.2329 53.6983 16.6351 53.6242 17.019C53.6666 18.0693 53.6666 19.2841 53.6665 20.6802V35.8064C53.6666 37.6846 53.6666 39.2348 53.5634 40.4976C53.4563 41.8091 53.2263 43.0148 52.6493 44.1472C51.7544 45.9034 50.3266 47.3312 48.5704 48.226C47.438 48.803 46.2324 49.033 44.9208 49.1402C43.658 49.2433 42.1079 49.2433 40.2296 49.2433H15.7701C13.8919 49.2433 12.3417 49.2433 11.0789 49.1402C9.76739 49.033 8.56175 48.803 7.4293 48.226C5.67312 47.3312 4.2453 45.9034 3.35048 44.1472C2.77347 43.0148 2.54349 41.8091 2.43633 40.4976C2.33315 39.2348 2.33318 37.6846 2.33321 35.8063V20.6803C2.33318 19.2841 2.33317 18.0693 2.37553 17.019C2.30143 16.6351 2.3233 16.2329 2.44804 15.8516C2.56002 14.5931 2.79367 13.4322 3.35048 12.3394C4.2453 10.5832 5.67312 9.15538 7.4293 8.26056C8.56175 7.68355 9.76739 7.45357 11.0789 7.34641C12.3417 7.24323 13.8919 7.24326 15.7702 7.24329ZM6.99987 21.0582V35.71C6.99987 37.7086 7.00169 39.0673 7.08749 40.1175C7.17107 41.1405 7.32257 41.6636 7.50851 42.0286C7.95592 42.9067 8.66983 43.6206 9.54792 44.068C9.91285 44.2539 10.436 44.4054 11.459 44.489C12.5092 44.5748 13.8679 44.5766 15.8665 44.5766H40.1332C42.1319 44.5766 43.4906 44.5748 44.5408 44.489C45.5638 44.4054 46.0869 44.2539 46.4518 44.068C47.3299 43.6206 48.0438 42.9067 48.4912 42.0286C48.6772 41.6636 48.8287 41.1405 48.9123 40.1175C48.9981 39.0673 48.9999 37.7086 48.9999 35.71V21.0582L33.6198 31.8242C33.5293 31.8876 33.4396 31.9505 33.3507 32.013C32.0798 32.9053 30.9639 33.6889 29.6929 34.0057C28.5812 34.2828 27.4185 34.2828 26.3068 34.0057C25.0359 33.6889 23.9199 32.9054 22.6491 32.013C22.5602 31.9505 22.4705 31.8876 22.3799 31.8242L6.99987 21.0582ZM48.8067 15.497L30.9436 28.0011C29.2428 29.1917 28.8824 29.3983 28.5642 29.4776C28.1937 29.57 27.8061 29.57 27.4355 29.4776C27.1173 29.3983 26.757 29.1917 25.0561 28.0011L7.193 15.497C7.27636 15.0136 7.38481 14.7008 7.50851 14.458C7.95592 13.5799 8.66983 12.866 9.54792 12.4186C9.91285 12.2326 10.436 12.0812 11.459 11.9976C12.5092 11.9118 13.8679 11.91 15.8665 11.91H40.1332C42.1319 11.91 43.4906 11.9118 44.5408 11.9976C45.5638 12.0812 46.0869 12.2326 46.4518 12.4186C47.3299 12.866 48.0438 13.5799 48.4912 14.458C48.6149 14.7008 48.7234 15.0136 48.8067 15.497Z" fill="white"/>
</svg>
