<svg width="56" height="57" viewBox="0 0 56 57" fill="none" xmlns="http://www.w3.org/2000/svg">
<path fill-rule="evenodd" clip-rule="evenodd" d="M28 7.24327C18.9793 7.24327 11.6667 14.5559 11.6667 23.5766C11.6667 29.9695 15.0251 33.4515 19.2912 37.0299C19.7377 37.4045 20.2018 37.7839 20.676 38.1717C23.202 40.2371 26.0154 42.5376 28 45.5841C29.9846 42.5376 32.798 40.2371 35.324 38.1717C35.7982 37.7839 36.2623 37.4045 36.7088 37.0299C40.9749 33.4515 44.3333 29.9695 44.3333 23.5766C44.3333 14.5559 37.0207 7.24327 28 7.24327ZM7 23.5766C7 11.9786 16.402 2.5766 28 2.5766C39.598 2.5766 49 11.9786 49 23.5766C49 32.1597 44.1917 36.8443 39.7078 40.6053C39.2339 41.0028 38.769 41.3876 38.3153 41.7632C34.3012 45.0858 31.1572 47.6881 30.288 52.0342C30.0699 53.1249 29.1123 53.9099 28 53.9099C26.8877 53.9099 25.9301 53.1249 25.712 52.0342C24.8428 47.6881 21.6988 45.0858 17.6847 41.7632C17.231 41.3876 16.7661 41.0028 16.2922 40.6053C11.8083 36.8443 7 32.1597 7 23.5766ZM28 18.9099C25.4227 18.9099 23.3333 20.9993 23.3333 23.5766C23.3333 26.1539 25.4227 28.2433 28 28.2433C30.5773 28.2433 32.6667 26.1539 32.6667 23.5766C32.6667 20.9993 30.5773 18.9099 28 18.9099ZM18.6667 23.5766C18.6667 18.4219 22.8453 14.2433 28 14.2433C33.1547 14.2433 37.3333 18.4219 37.3333 23.5766C37.3333 28.7313 33.1547 32.9099 28 32.9099C22.8453 32.9099 18.6667 28.7313 18.6667 23.5766Z" fill="white"/>
</svg>
