<svg width="56" height="57" viewBox="0 0 56 57" fill="none" xmlns="http://www.w3.org/2000/svg">
<path fill-rule="evenodd" clip-rule="evenodd" d="M16.112 8.78846C15.4499 8.45354 14.6679 8.45354 14.0057 8.78846C13.7567 8.91441 13.4463 9.18336 12.0766 10.5531L11.7088 10.9209C10.4016 12.2281 10.0492 12.6061 9.76759 13.1075C9.44113 13.6887 9.16762 14.7404 9.16961 15.407C9.17137 16.0001 9.25894 16.3573 9.64454 17.7159C11.5476 24.4209 15.1377 30.7484 20.4211 36.0318C25.7045 41.3152 32.032 44.9053 38.737 46.8084C40.0956 47.194 40.4528 47.2816 41.046 47.2833C41.7125 47.2853 42.7643 47.0118 43.3454 46.6853C43.8468 46.4037 44.2249 46.0513 45.532 44.7442L45.8999 44.3764C47.2696 43.0066 47.5385 42.6962 47.6645 42.4472C47.9994 41.785 47.9994 41.0031 47.6645 40.3409C47.5385 40.0919 47.2696 39.7815 45.8999 38.4117L47.5498 36.7618L45.8998 38.4117L45.4452 37.9571C44.5452 37.0571 44.3428 36.8728 44.1894 36.7731C43.4161 36.2702 42.419 36.2702 41.6457 36.7731C41.4923 36.8728 41.2899 37.0571 40.3899 37.957C40.3722 37.9748 40.354 37.9931 40.3353 38.0118C40.1259 38.222 39.8608 38.488 39.5425 38.716L38.184 36.8189L39.5425 38.716C38.4062 39.5296 36.8614 39.793 35.5196 39.4019C35.1454 39.2928 34.8374 39.1443 34.5978 39.0288C34.5788 39.0197 34.5603 39.0108 34.5422 39.0021C30.9256 37.2657 27.5383 34.8995 24.5459 31.907C21.5535 28.9146 19.1873 25.5273 17.4508 21.9107C17.4422 21.8926 17.4332 21.8741 17.4241 21.8552C17.3086 21.6156 17.1601 21.3075 17.051 20.9333L19.2911 20.2803L17.051 20.9333C16.6599 19.5916 16.9233 18.0468 17.737 16.9105L17.737 16.9105C17.9649 16.5921 18.231 16.327 18.4411 16.1176C18.4598 16.099 18.4781 16.0808 18.4959 16.063C19.3959 15.163 19.5802 14.9606 19.6799 14.8073L19.6799 14.8073C20.1827 14.0339 20.1827 13.0369 19.6799 12.2635C19.5802 12.1101 19.3959 11.9078 18.4959 11.0078L18.0412 10.5531C16.6715 9.18336 16.361 8.91441 16.112 8.78846ZM11.8995 4.62416C13.8859 3.61942 16.2319 3.61942 18.2183 4.62416C19.2277 5.13471 20.104 6.01324 21.1177 7.02954C21.1914 7.10341 21.2658 7.17801 21.341 7.25325L21.7957 7.70794C21.8453 7.75752 21.8944 7.80655 21.943 7.8551C22.6119 8.52284 23.1881 9.09803 23.5923 9.71975L21.6361 10.9916L23.5923 9.71975C25.1008 12.0399 25.1008 15.0309 23.5923 17.351C23.1881 17.9727 22.6119 18.5479 21.943 19.2157C21.8944 19.2642 21.8453 19.3132 21.7957 19.3628C21.6613 19.4972 21.5927 19.5662 21.545 19.6167C21.5441 19.6205 21.5432 19.6247 21.5425 19.6293C21.5416 19.6343 21.541 19.639 21.5405 19.6432C21.5482 19.6603 21.5586 19.6829 21.573 19.7133C21.5954 19.761 21.6217 19.8159 21.6578 19.8909C23.1693 23.0392 25.2308 25.9923 27.8457 28.6072C30.4607 31.2221 33.4137 33.2836 36.562 34.7952L35.5521 36.8986L36.562 34.7952C36.637 34.8312 36.6919 34.8575 36.7396 34.88C36.7701 34.8943 36.7927 34.9047 36.8097 34.9124C36.8139 34.912 36.8186 34.9113 36.8237 34.9105C36.8282 34.9097 36.8324 34.9088 36.8362 34.908C36.8868 34.8602 36.9557 34.7916 37.0901 34.6572C37.1397 34.6076 37.1887 34.5585 37.2373 34.5099C37.905 33.841 38.4802 33.2648 39.1019 32.8606C41.422 31.3521 44.4131 31.3521 46.7332 32.8606C47.3549 33.2648 47.9301 33.841 48.5978 34.5099C48.6464 34.5585 48.6954 34.6076 48.745 34.6572L47.0951 36.3071L48.745 34.6572L49.1997 35.1119C49.2749 35.1871 49.3495 35.2616 49.4234 35.3352C50.4397 36.3489 51.3182 37.2252 51.8288 38.2346C52.8335 40.2211 52.8335 42.567 51.8288 44.5535C51.3182 45.5629 50.4397 46.4392 49.4234 47.4529C49.3495 47.5266 49.2749 47.601 49.1997 47.6762L48.8319 48.044C48.7786 48.0973 48.726 48.15 48.6739 48.2021C47.5883 49.2888 46.7558 50.1221 45.631 50.754C44.3478 51.4748 42.5039 51.9544 41.0321 51.95C39.7443 51.9462 38.8052 51.6793 37.5942 51.3351C37.5508 51.3227 37.507 51.3103 37.4628 51.2977C30.012 49.183 22.9818 45.1921 17.1213 39.3317C11.2608 33.4712 7.26998 26.441 5.15521 18.9901C5.14267 18.9459 5.13022 18.9022 5.11787 18.8587C4.77369 17.6477 4.50679 16.7086 4.50296 15.4209C4.49858 13.9491 4.97809 12.1052 5.69893 10.822L5.69893 10.822C6.3308 9.69713 7.16416 8.86463 8.25086 7.77903C8.30297 7.72697 8.35566 7.67434 8.40894 7.62106L8.77675 7.25325C8.85199 7.17801 8.9264 7.10341 9.00009 7.02953C10.0138 6.01324 10.8901 5.13471 11.8995 4.62417L12.9407 6.68272L11.8995 4.62416Z" fill="white"/>
</svg>
