<svg width="16" height="17" viewBox="0 0 16 17" fill="none" xmlns="http://www.w3.org/2000/svg">
<path fill-rule="evenodd" clip-rule="evenodd" d="M7.99996 3.06641C8.36815 3.06641 8.66663 3.36488 8.66663 3.73307V7.73308H12.6666C13.0348 7.73308 13.3333 8.03155 13.3333 8.39974C13.3333 8.76793 13.0348 9.06641 12.6666 9.06641H8.66663V13.0664C8.66663 13.4346 8.36815 13.7331 7.99996 13.7331C7.63177 13.7331 7.33329 13.4346 7.33329 13.0664V9.06641H3.33329C2.9651 9.06641 2.66663 8.76793 2.66663 8.39974C2.66663 8.03155 2.9651 7.73308 3.33329 7.73308H7.33329V3.73307C7.33329 3.36488 7.63177 3.06641 7.99996 3.06641Z" fill="#F5F8FB"/>
</svg>
