<svg width="16" height="16" viewBox="0 0 16 16" fill="none" xmlns="http://www.w3.org/2000/svg">
<path fill-rule="evenodd" clip-rule="evenodd" d="M3.00033 0.909912C3.36852 0.909912 3.66699 1.20839 3.66699 1.57658V2.57658H4.66699C5.03518 2.57658 5.33366 2.87506 5.33366 3.24325C5.33366 3.61144 5.03518 3.90991 4.66699 3.90991H3.66699V4.90991C3.66699 5.2781 3.36852 5.57658 3.00033 5.57658C2.63214 5.57658 2.33366 5.2781 2.33366 4.90991V3.90991H1.33366C0.965469 3.90991 0.666992 3.61144 0.666992 3.24325C0.666992 2.87506 0.965469 2.57658 1.33366 2.57658H2.33366V1.57658C2.33366 1.20839 2.63214 0.909912 3.00033 0.909912ZM8.66699 1.57658C8.94284 1.57658 9.1902 1.74646 9.28922 2.00393L10.4453 5.00983C10.6456 5.53053 10.7085 5.68058 10.7946 5.80164C10.881 5.92311 10.9871 6.02924 11.1086 6.11561C11.2297 6.2017 11.3797 6.26463 11.9004 6.4649L14.9063 7.62101C15.1638 7.72004 15.3337 7.9674 15.3337 8.24325C15.3337 8.51909 15.1638 8.76645 14.9063 8.86548L11.9004 10.0216C11.3797 10.2219 11.2297 10.2848 11.1086 10.3709C10.9871 10.4572 10.881 10.5634 10.7946 10.6849C10.7085 10.8059 10.6456 10.956 10.4453 11.4767L9.28922 14.4826C9.1902 14.74 8.94284 14.9099 8.66699 14.9099C8.39115 14.9099 8.14379 14.74 8.04476 14.4826L6.88864 11.4767C6.68838 10.956 6.62544 10.8059 6.53936 10.6848C6.45299 10.5634 6.34686 10.4572 6.22539 10.3709C6.10432 10.2848 5.95428 10.2219 5.43358 10.0216L2.42767 8.86548C2.17021 8.76645 2.00033 8.51909 2.00033 8.24325C2.00033 7.9674 2.17021 7.72004 2.42767 7.62101L5.43358 6.4649C5.95428 6.26463 6.10432 6.2017 6.22539 6.11561C6.34686 6.02924 6.45299 5.92311 6.53936 5.80164C6.62544 5.68058 6.68837 5.53053 6.88864 5.00983L8.04476 2.00393C8.14378 1.74646 8.39114 1.57658 8.66699 1.57658ZM8.66699 4.10036L8.1331 5.48847C8.12426 5.51146 8.11555 5.53414 8.10695 5.55653C7.94457 5.97937 7.82191 6.29878 7.626 6.5743C7.45325 6.81724 7.24099 7.0295 6.99805 7.20225C6.72253 7.39816 6.40312 7.52082 5.98028 7.68321C5.95789 7.69181 5.9352 7.70052 5.91222 7.70936L4.52411 8.24325L5.91222 8.77713C5.9352 8.78597 5.95789 8.79468 5.98028 8.80328C6.40312 8.96567 6.72253 9.08833 6.99805 9.28424C7.24099 9.45699 7.45325 9.66925 7.626 9.91219C7.8219 10.1877 7.94457 10.5071 8.10695 10.93C8.11555 10.9523 8.12426 10.975 8.1331 10.998L8.66699 12.3861L9.20088 10.998C9.20972 10.975 9.21843 10.9524 9.22703 10.93C9.38941 10.5071 9.51208 10.1877 9.70799 9.91219C9.88073 9.66925 10.093 9.45699 10.3359 9.28424C10.6115 9.08833 10.9309 8.96567 11.3537 8.80328C11.3761 8.79468 11.3988 8.78597 11.4218 8.77713L12.8099 8.24325L11.4218 7.70936C11.3988 7.70052 11.3761 7.6918 11.3537 7.6832C10.9309 7.52082 10.6115 7.39816 10.3359 7.20225C10.093 7.0295 9.88073 6.81724 9.70799 6.5743C9.51208 6.29878 9.38941 5.97937 9.22703 5.55653C9.21843 5.53414 9.20972 5.51146 9.20088 5.48847L8.66699 4.10036ZM3.00033 10.9099C3.36852 10.9099 3.66699 11.2084 3.66699 11.5766V12.5766H4.66699C5.03518 12.5766 5.33366 12.8751 5.33366 13.2432C5.33366 13.6114 5.03518 13.9099 4.66699 13.9099H3.66699V14.9099C3.66699 15.2781 3.36852 15.5766 3.00033 15.5766C2.63214 15.5766 2.33366 15.2781 2.33366 14.9099V13.9099H1.33366C0.965469 13.9099 0.666992 13.6114 0.666992 13.2432C0.666992 12.8751 0.965469 12.5766 1.33366 12.5766H2.33366V11.5766C2.33366 11.2084 2.63214 10.9099 3.00033 10.9099Z" fill="#E7F1FD" fill-opacity="0.49"/>
</svg>
