<svg width="24" height="25" viewBox="0 0 24 25" fill="none" xmlns="http://www.w3.org/2000/svg">
    <path d="M23.2522 6.32178C23.0311 5.15344 21.9775 4.30261 20.7548 4.03699C18.9252 3.66553 15.539 3.3999 11.8753 3.3999C8.21384 3.3999 4.77347 3.66553 2.94164 4.03699C1.72115 4.30261 0.665406 5.09949 0.444286 6.32178C0.220998 7.6499 -0.00012207 9.50928 -0.00012207 11.8999C-0.00012207 14.2905 0.220998 16.1499 0.498483 17.478C0.72177 18.6464 1.77534 19.4972 2.99584 19.7628C4.93823 20.1343 8.26804 20.3999 11.9317 20.3999C15.5954 20.3999 18.9252 20.1343 20.8676 19.7628C22.088 19.4972 23.1416 18.7003 23.3649 17.478C23.586 16.1499 23.8635 14.2366 23.9199 11.8999C23.8071 9.50928 23.5297 7.6499 23.2522 6.32178ZM8.87937 15.6187V8.18115L15.6496 11.8999L8.87937 15.6187Z" fill="#F5F8FB"/>
    </svg>
    