<svg width="24" height="24" viewBox="0 0 24 24" fill="none" xmlns="http://www.w3.org/2000/svg">
<path d="M20.2752 6.02667C18.7615 4.74667 16.945 4.10667 15.0275 4L14.7248 4.32C16.4404 4.74667 17.9541 5.6 19.367 6.77333C17.6514 5.81333 15.7339 5.17333 13.7156 4.96C13.1101 4.85333 12.6055 4.85333 12 4.85333C11.3945 4.85333 10.8899 4.85333 10.2844 4.96C8.26606 5.17333 6.34862 5.81333 4.63303 6.77333C6.04587 5.6 7.55963 4.74667 9.27523 4.32L8.97248 4C7.05505 4.10667 5.23853 4.74667 3.72477 6.02667C2.00917 9.44 1.10092 13.28 1 17.2267C2.51376 18.9333 4.63303 20 6.85321 20C6.85321 20 7.55963 19.1467 8.06422 18.4C6.75229 18.08 5.54128 17.3333 4.73395 16.16C5.44037 16.5867 6.14679 17.0133 6.85321 17.3333C7.76147 17.76 8.66972 17.9733 9.57798 18.1867C10.3853 18.2933 11.1927 18.4 12 18.4C12.8073 18.4 13.6147 18.2933 14.422 18.1867C15.3303 17.9733 16.2385 17.76 17.1468 17.3333C17.8532 17.0133 18.5596 16.5867 19.2661 16.16C18.4587 17.3333 17.2477 18.08 15.9358 18.4C16.4404 19.1467 17.1468 20 17.1468 20C19.367 20 21.4862 18.9333 23 17.2267C22.8991 13.28 21.9908 9.44 20.2752 6.02667ZM8.66972 15.3067C7.66055 15.3067 6.75229 14.3467 6.75229 13.1733C6.75229 12 7.66055 11.04 8.66972 11.04C9.6789 11.04 10.5872 12 10.5872 13.1733C10.5872 14.3467 9.6789 15.3067 8.66972 15.3067ZM15.3303 15.3067C14.3211 15.3067 13.4128 14.3467 13.4128 13.1733C13.4128 12 14.3211 11.04 15.3303 11.04C16.3394 11.04 17.2477 12 17.2477 13.1733C17.2477 14.3467 16.3394 15.3067 15.3303 15.3067Z" fill="#F5F8FB"/>
</svg>
