<svg width="20" height="19" viewBox="0 0 20 19" fill="none" xmlns="http://www.w3.org/2000/svg">
<path d="M17.8642 0.168945H2.13221C1.3786 0.168945 0.769226 0.763897 0.769226 1.49947V17.2964C0.769226 18.0319 1.3786 18.6305 2.13221 18.6305H17.8642C18.6178 18.6305 19.2308 18.0319 19.2308 17.3V1.49947C19.2308 0.763897 18.6178 0.168945 17.8642 0.168945ZM6.24639 15.9009H3.50601V7.08842H6.24639V15.9009ZM4.8762 5.8877C3.99639 5.8877 3.28605 5.17736 3.28605 4.30116C3.28605 3.42496 3.99639 2.71462 4.8762 2.71462C5.7524 2.71462 6.46274 3.42496 6.46274 4.30116C6.46274 5.17375 5.7524 5.8877 4.8762 5.8877ZM16.5012 15.9009H13.7644V11.6173C13.7644 10.5968 13.7464 9.28073 12.3401 9.28073C10.9159 9.28073 10.6995 10.3949 10.6995 11.5451V15.9009H7.96634V7.08842H10.5913V8.29274H10.6274C10.9916 7.60044 11.8858 6.86847 13.2163 6.86847C15.9892 6.86847 16.5012 8.69299 16.5012 11.0656V15.9009Z" fill="#F5F8FB"/>
</svg>
