<svg width="135" height="21" viewBox="0 0 135 21" fill="none" xmlns="http://www.w3.org/2000/svg">
<path d="M18.072 15.528C18.072 17.2347 17.5387 18.5253 16.472 19.4C15.4267 20.2747 13.5707 20.712 10.904 20.712H0.919998V0.455999H10.584C12.3547 0.455999 13.7307 0.647999 14.712 1.032C15.7147 1.39467 16.4187 1.93867 16.824 2.664C17.2293 3.38933 17.432 4.296 17.432 5.384C17.432 6.87733 17.0693 8.04 16.344 8.872C15.64 9.68267 14.3067 10.1733 12.344 10.344V10.44C13.7947 10.5467 14.936 10.792 15.768 11.176C16.6 11.5387 17.1867 12.072 17.528 12.776C17.8907 13.48 18.072 14.3973 18.072 15.528ZM9.176 4.488H6.04V8.456H9.176C10.2213 8.456 10.9787 8.328 11.448 8.072C11.9173 7.79467 12.152 7.26133 12.152 6.472C12.152 5.704 11.9173 5.18133 11.448 4.904C10.9787 4.62667 10.2213 4.488 9.176 4.488ZM9.816 12.648H6.04V16.712H9.816C10.8613 16.712 11.6187 16.5733 12.088 16.296C12.5573 15.9973 12.792 15.4533 12.792 14.664C12.792 13.8533 12.5573 13.32 12.088 13.064C11.6187 12.7867 10.8613 12.648 9.816 12.648Z" fill="white"/>
<path d="M26.0712 20.712H20.9512V0.455999H26.0712V20.712Z" fill="white"/>
<path d="M43.04 0.455999H48.16V20.712H43.072L37.312 12.136C36.864 11.4533 36.4907 10.8773 36.192 10.408C35.8933 9.93867 35.616 9.46933 35.36 9C35.104 8.53067 34.816 7.976 34.496 7.336L34.4 7.464C34.6987 8.488 34.88 9.448 34.944 10.344C35.008 11.2187 35.04 12.072 35.04 12.904V20.712H29.92V0.455999H35.008L40.768 9.032C41.216 9.69333 41.5893 10.2693 41.888 10.76C42.1867 11.2293 42.464 11.6987 42.72 12.168C42.976 12.6373 43.264 13.192 43.584 13.832L43.68 13.704C43.4667 12.808 43.3067 11.944 43.2 11.112C43.0933 10.2587 43.04 9.416 43.04 8.584V0.455999Z" fill="white"/>
<path d="M70.5737 20.616V20.712H65.1338C64.9844 20.2 64.8031 19.6133 64.5897 18.952C64.3978 18.2907 64.1844 17.5867 63.9497 16.84H57.0378C56.6111 18.3333 56.2164 19.624 55.8537 20.712H50.4137V20.648L56.9737 0.455999H64.0137L70.5737 20.616ZM60.4297 4.104C60.2164 5.192 59.9071 6.51467 59.5017 8.072C59.0964 9.62933 58.6697 11.2187 58.2217 12.84H62.7977C62.3284 11.2187 61.8911 9.62933 61.4857 8.072C61.0804 6.51467 60.7711 5.192 60.5577 4.104H60.4297Z" fill="white"/>
<path d="M89.9782 15.528C89.9782 17.2347 89.4449 18.5253 88.3783 19.4C87.3329 20.2747 85.4769 20.712 82.8102 20.712H72.8262V0.455999H82.4902C84.2609 0.455999 85.6369 0.647999 86.6182 1.032C87.6209 1.39467 88.3249 1.93867 88.7302 2.664C89.1356 3.38933 89.3382 4.296 89.3382 5.384C89.3382 6.87733 88.9756 8.04 88.2503 8.872C87.5462 9.68267 86.2129 10.1733 84.2503 10.344V10.44C85.7009 10.5467 86.8422 10.792 87.6742 11.176C88.5062 11.5387 89.0929 12.072 89.4342 12.776C89.7969 13.48 89.9782 14.3973 89.9782 15.528ZM81.0822 4.488H77.9463V8.456H81.0822C82.1276 8.456 82.8849 8.328 83.3542 8.072C83.8236 7.79467 84.0583 7.26133 84.0583 6.472C84.0583 5.704 83.8236 5.18133 83.3542 4.904C82.8849 4.62667 82.1276 4.488 81.0822 4.488ZM81.7223 12.648H77.9463V16.712H81.7223C82.7676 16.712 83.5249 16.5733 83.9942 16.296C84.4636 15.9973 84.6982 15.4533 84.6982 14.664C84.6982 13.8533 84.4636 13.32 83.9942 13.064C83.5249 12.7867 82.7676 12.648 81.7223 12.648Z" fill="white"/>
<path d="M92.2175 10.568C92.2175 7.98667 92.5055 5.93867 93.0815 4.424C93.6788 2.90933 94.6922 1.82133 96.1215 1.16C97.5722 0.498666 99.5882 0.167999 102.169 0.167999C104.111 0.167999 105.721 0.349333 107.001 0.712C108.281 1.07467 109.295 1.66133 110.041 2.472C110.788 3.28267 111.311 4.36 111.609 5.704C111.929 7.02667 112.09 8.648 112.09 10.568C112.09 12.5093 111.929 14.152 111.609 15.496C111.311 16.8187 110.788 17.8853 110.041 18.696C109.295 19.5067 108.281 20.0933 107.001 20.456C105.721 20.8187 104.111 21 102.169 21C100.228 21 98.6175 20.8187 97.3375 20.456C96.0575 20.0933 95.0442 19.5067 94.2975 18.696C93.5508 17.8853 93.0175 16.8187 92.6975 15.496C92.3775 14.152 92.2175 12.5093 92.2175 10.568ZM102.169 16.52C103.535 16.52 104.559 16.3493 105.242 16.008C105.924 15.6667 106.383 15.0693 106.618 14.216C106.852 13.3413 106.969 12.1253 106.969 10.568C106.969 9.032 106.852 7.83733 106.618 6.984C106.383 6.13067 105.924 5.53333 105.242 5.192C104.559 4.82933 103.535 4.648 102.169 4.648C100.825 4.648 99.8015 4.82933 99.0975 5.192C98.4148 5.53333 97.9455 6.13067 97.6895 6.984C97.4548 7.83733 97.3375 9.032 97.3375 10.568C97.3375 12.1253 97.4548 13.3413 97.6895 14.216C97.9455 15.0693 98.4148 15.6667 99.0975 16.008C99.8015 16.3493 100.825 16.52 102.169 16.52Z" fill="white"/>
<path d="M128.351 10.376L134.271 20.712H127.871L124.191 13.544H124.095L120.415 20.712H114.015L119.935 10.376V10.216L114.399 0.455999H120.703L124.095 7.496H124.191L127.583 0.455999H133.887L128.351 10.216V10.376Z" fill="white"/>
</svg>
