<svg width="16" height="16" viewBox="0 0 16 16" fill="none" xmlns="http://www.w3.org/2000/svg">
<path fill-rule="evenodd" clip-rule="evenodd" d="M7.99999 2.66659C6.71133 2.66659 5.66666 3.71125 5.66666 4.99992C5.66666 6.28858 6.71133 7.33325 7.99999 7.33325C9.28866 7.33325 10.3333 6.28858 10.3333 4.99992C10.3333 3.71125 9.28866 2.66659 7.99999 2.66659ZM4.33333 4.99992C4.33333 2.97487 5.97495 1.33325 7.99999 1.33325C10.025 1.33325 11.6667 2.97487 11.6667 4.99992C11.6667 7.02496 10.025 8.66659 7.99999 8.66659C5.97495 8.66659 4.33333 7.02496 4.33333 4.99992ZM7.99999 10.6666C6.1073 10.6666 4.42032 11.5794 3.34256 13.0058C3.27662 13.0931 3.22616 13.1599 3.18419 13.2187C3.15233 13.2633 3.13058 13.296 3.11544 13.3209C3.21452 13.3322 3.3557 13.3333 3.61815 13.3333H12.3818C12.6443 13.3333 12.7855 13.3322 12.8845 13.3209C12.8694 13.296 12.8477 13.2633 12.8158 13.2187C12.7738 13.1599 12.7234 13.0931 12.6574 13.0058C11.5797 11.5794 9.89268 10.6666 7.99999 10.6666ZM2.27876 12.202C3.59407 10.4612 5.66591 9.33325 7.99999 9.33325C10.3341 9.33325 12.4059 10.4612 13.7212 12.202C13.7272 12.2099 13.7331 12.2178 13.7391 12.2257C13.8522 12.3752 13.9735 12.5356 14.0602 12.6903C14.165 12.8776 14.2428 13.0942 14.238 13.3576C14.2341 13.5694 14.1699 13.7676 14.092 13.9242C14.0141 14.0807 13.8946 14.2514 13.728 14.3822C13.5058 14.5566 13.2638 14.6183 13.0489 14.6441C12.8603 14.6667 12.6369 14.6666 12.4122 14.6666C12.4021 14.6666 12.392 14.6666 12.3818 14.6666H3.61815C3.60802 14.6666 3.59789 14.6666 3.58777 14.6666C3.3631 14.6666 3.13965 14.6667 2.95109 14.6441C2.73616 14.6183 2.49422 14.5566 2.27201 14.3822C2.10538 14.2514 1.98589 14.0807 1.90798 13.9242C1.83006 13.7676 1.7659 13.5694 1.76202 13.3576C1.7572 13.0942 1.83494 12.8776 1.93983 12.6903C2.02649 12.5356 2.14775 12.3752 2.26084 12.2257C2.26684 12.2178 2.27281 12.2099 2.27876 12.202Z" fill="#F5F8FB"/>
</svg>
