<svg width="24" height="25" viewBox="0 0 24 25" fill="none" xmlns="http://www.w3.org/2000/svg">
<path d="M23.5468 2.82263C23.1374 2.51442 22.4944 2.47032 21.8295 2.7073H21.8285C21.1292 2.95639 2.03537 10.2276 1.25808 10.5246C1.11671 10.5683 -0.118008 10.9773 0.00917513 11.8884C0.122712 12.7098 1.11507 13.05 1.23625 13.0892L6.0905 14.5649C6.41255 15.5167 7.59977 19.0282 7.86233 19.7784C8.02608 20.2461 8.293 20.8606 8.7608 20.987C9.17128 21.1276 9.57957 20.9992 9.84376 20.815L12.8116 18.3711L17.6025 21.6883L17.7166 21.7489C18.0419 21.8768 18.3536 21.9408 18.6511 21.9408C18.8809 21.9408 19.1014 21.9025 19.3121 21.8259C20.0299 21.5642 20.317 20.957 20.347 20.8882L23.9256 4.37389C24.144 3.49189 23.8405 3.04313 23.5468 2.82263ZM10.3716 15.1552L8.73405 19.0321L7.0965 14.1859L19.6511 5.94744L10.3716 15.1552Z" fill="#F5F8FB"/>
</svg>
