<svg width="24" height="25" viewBox="0 0 24 25" fill="none" xmlns="http://www.w3.org/2000/svg">
<path d="M19.644 6.57996C20.5011 6.04378 21.1424 5.1995 21.4482 4.20477C20.6428 4.70482 19.7616 5.05707 18.8428 5.24629C17.5688 3.83611 15.5504 3.49294 13.9153 4.40852C12.2803 5.32411 11.4334 7.27179 11.8478 9.16325C8.54886 8.98994 5.47529 7.35926 3.39195 4.677C2.30469 6.63941 2.86031 9.14802 4.66167 10.4099C4.01028 10.388 3.37333 10.2034 2.80394 9.8716C2.80394 9.88961 2.80394 9.90762 2.80394 9.92563C2.80432 11.9698 4.1811 13.7306 6.09584 14.1357C5.49164 14.3078 4.85787 14.3331 4.24289 14.2098C4.78138 15.9579 6.32106 17.1555 8.07595 17.1913C6.6225 18.385 4.82753 19.0324 2.97986 19.0292C2.65237 19.0297 2.32513 19.01 1.99985 18.9702C3.87612 20.2318 6.05986 20.9015 8.29012 20.8991C11.393 20.9214 14.3749 19.6414 16.5689 17.3454C18.7629 15.0493 19.9858 11.9289 19.9643 8.68201C19.9643 8.49592 19.9601 8.31082 19.9519 8.12673C20.7554 7.51903 21.4489 6.7662 21.9998 5.90362C21.2512 6.25085 20.4571 6.47883 19.644 6.57996Z" fill="#F5F8FB"/>
</svg>
