<svg width="24" height="25" viewBox="0 0 24 25" fill="none" xmlns="http://www.w3.org/2000/svg">
<path d="M19.033 3.16895H4.96709C3.75522 3.16895 2.76929 4.15488 2.76929 5.36675V19.4327C2.76929 20.6446 3.75522 21.6305 4.96709 21.6305H19.033C20.2449 21.6305 21.2308 20.6446 21.2308 19.4327V5.36675C21.2308 4.15488 20.2449 3.16895 19.033 3.16895ZM17.2774 11.223C17.1776 11.2322 17.0765 11.2384 16.9741 11.2384C15.8212 11.2384 14.808 10.6454 14.2185 9.74917C14.2185 12.1004 14.2185 14.7755 14.2185 14.8204C14.2185 16.8903 12.5403 18.5685 10.4704 18.5685C8.4005 18.5685 6.72225 16.8903 6.72225 14.8204C6.72225 12.7505 8.4005 11.0722 10.4704 11.0722C10.5486 11.0722 10.6251 11.0793 10.702 11.0841V12.9311C10.6251 12.9219 10.5495 12.9078 10.4704 12.9078C9.41368 12.9078 8.55742 13.7641 8.55742 14.8208C8.55742 15.8775 9.41368 16.7338 10.4704 16.7338C11.5271 16.7338 12.4603 15.9013 12.4603 14.8446C12.4603 14.8028 12.4787 6.2318 12.4787 6.2318H14.244C14.4102 7.81026 15.6845 9.05598 17.2774 9.17026V11.223Z" fill="#F5F8FB"/>
</svg>
